<?xml version="1.0" encoding="UTF-8"?>
<svg id="Layer_2" data-name="Layer 2" xmlns="http://www.w3.org/2000/svg" viewBox="0 0 29.24 29.24">
  <defs>
    <style>
      .cls-1 {
        fill: #fff;
      }

      .cls-2, .cls-3 {
        fill: #8990a5;
      }

      .cls-3 {
        opacity: .75;
        stroke: #fff;
        stroke-miterlimit: 10;
        stroke-width: .25px;
      }
    </style>
  </defs>
  <g id="Layer_1-2" data-name="Layer 1">
    <g>
      <rect class="cls-2" x="0" y="0" width="29.24" height="29.24" rx="7.65" ry="7.65" transform="translate(29.24 0) rotate(90)"/>
      <rect class="cls-3" x="1.13" y="1.13" width="26.98" height="26.98" rx="6.52" ry="6.52" transform="translate(29.24 0) rotate(90)"/>
    </g>
    <path class="cls-1" d="M19.88,7.77h0c-1.4-1.4-3.24-2.1-5.07-2.1s-3.67.7-5.07,2.1c-2.56,2.56-2.81,6.63-.58,9.49l5.07,6.5c.3.38.88.38,1.18,0l5.07-6.5c2.23-2.86,1.98-6.93-.58-9.49ZM14.8,15.69c-1.58,0-2.86-1.28-2.86-2.86s1.28-2.86,2.86-2.86,2.86,1.28,2.86,2.86-1.28,2.86-2.86,2.86Z"/>
  </g>
</svg>