<?xml version="1.0" encoding="UTF-8"?>
<svg id="Layer_2" data-name="Layer 2" xmlns="http://www.w3.org/2000/svg" xmlns:xlink="http://www.w3.org/1999/xlink" viewBox="0 0 91.71 34.11">
  <defs>
    <style>
      .cls-1 {
        fill: #4f4f4f;
      }

      .cls-2 {
        fill: url(#Degradado_sin_nombre_33);
      }

      .cls-3 {
        fill: url(#linear-gradient);
      }
    </style>
    <linearGradient id="Degradado_sin_nombre_33" data-name="Degradado sin nombre 33" x1="0" y1="17.05" x2="91.71" y2="17.05" gradientUnits="userSpaceOnUse">
      <stop offset="0" stop-color="#b8b8b8"/>
      <stop offset=".37" stop-color="#cfcfcf"/>
      <stop offset=".97" stop-color="#fff"/>
    </linearGradient>
    <linearGradient id="linear-gradient" x1="2" y1="17.05" x2="89.71" y2="17.05" gradientUnits="userSpaceOnUse">
      <stop offset="0" stop-color="#fff"/>
      <stop offset=".77" stop-color="#b8b8b8"/>
    </linearGradient>
  </defs>
  <g id="OBJECTS">
    <path class="cls-2" d="M0,0h74.65C84.06,0,91.71,7.64,91.71,17.05h0c0,9.41-7.64,17.05-17.05,17.05H0V0h0Z"/>
    <path class="cls-3" d="M2,32.11V2h72.65c8.3,0,15.05,6.75,15.05,15.05s-6.75,15.05-15.05,15.05H2Z"/>
    <g>
      <path class="cls-1" d="M22.01,12.81c.5-.08,1.16-.16,2-.16,1.03,0,1.79.24,2.27.67.44.38.71.97.71,1.69s-.22,1.31-.62,1.73c-.55.59-1.45.89-2.47.89-.31,0-.6-.01-.84-.07v3.24h-1.04v-7.99ZM23.06,16.7c.23.06.52.08.86.08,1.26,0,2.03-.61,2.03-1.73s-.76-1.58-1.91-1.58c-.46,0-.8.04-.98.08v3.14Z"/>
      <path class="cls-1" d="M28.17,16.8c0-.68-.01-1.27-.05-1.81h.92l.04,1.14h.05c.26-.78.9-1.27,1.61-1.27.12,0,.2.01.3.04v1c-.11-.02-.22-.04-.36-.04-.74,0-1.27.56-1.42,1.36-.02.14-.05.31-.05.49v3.09h-1.04v-3.99Z"/>
      <path class="cls-1" d="M37.23,17.84c0,2.15-1.49,3.08-2.89,3.08-1.57,0-2.78-1.15-2.78-2.99,0-1.94,1.27-3.08,2.88-3.08s2.79,1.21,2.79,2.99ZM32.62,17.9c0,1.27.73,2.23,1.76,2.23s1.76-.95,1.76-2.25c0-.98-.49-2.23-1.74-2.23s-1.79,1.15-1.79,2.25Z"/>
      <path class="cls-1" d="M43.57,12.28v7.02c0,.52.01,1.1.05,1.5h-.95l-.05-1.01h-.02c-.32.65-1.03,1.14-1.98,1.14-1.4,0-2.48-1.19-2.48-2.95-.01-1.93,1.19-3.12,2.6-3.12.89,0,1.49.42,1.75.89h.02v-3.47h1.06ZM42.52,17.35c0-.13-.01-.31-.05-.44-.16-.67-.73-1.22-1.52-1.22-1.09,0-1.74.96-1.74,2.24,0,1.18.58,2.15,1.72,2.15.71,0,1.35-.47,1.55-1.26.04-.14.05-.29.05-.46v-1.01Z"/>
      <path class="cls-1" d="M50.19,19.21c0,.6.01,1.13.05,1.58h-.94l-.06-.95h-.02c-.28.47-.89,1.08-1.92,1.08-.91,0-2-.5-2-2.54v-3.39h1.06v3.21c0,1.1.34,1.85,1.3,1.85.71,0,1.2-.49,1.39-.96.06-.16.1-.35.1-.54v-3.56h1.06v4.22Z"/>
      <path class="cls-1" d="M56.08,20.58c-.28.14-.89.34-1.67.34-1.75,0-2.89-1.19-2.89-2.96s1.22-3.08,3.12-3.08c.62,0,1.18.16,1.46.3l-.24.82c-.25-.14-.65-.28-1.22-.28-1.33,0-2.05.98-2.05,2.19,0,1.34.86,2.17,2.02,2.17.6,0,1-.16,1.3-.29l.18.79Z"/>
      <path class="cls-1" d="M58.74,13.32v1.67h1.51v.8h-1.51v3.13c0,.72.2,1.13.79,1.13.28,0,.48-.04.61-.07l.05.79c-.2.08-.53.14-.94.14-.49,0-.89-.16-1.14-.44-.3-.31-.41-.83-.41-1.51v-3.17h-.9v-.8h.9v-1.39l1.03-.28Z"/>
    </g>
  </g>
</svg>